<svg width="230" height="26" viewBox="0 0 230 26" fill="none" xmlns="http://www.w3.org/2000/svg">
<path fill-rule="evenodd" clip-rule="evenodd" d="M6.52597 7.74666C6.25842 7.28205 6.38176 6.63679 6.80228 6.30396L12.178 2.04926C12.227 2.01044 12.278 1.97781 12.3303 1.95125C12.3826 1.88123 12.4662 1.83591 12.5603 1.83591H14.0303H14.196H15.463H17.3442H17.3858H19.1488H20.5756H22.0515C22.2101 1.83591 22.3386 1.96444 22.3386 2.12299V5.02568V9.30099C22.3386 9.54624 22.3285 9.78874 22.3087 10.0279C22.3047 10.076 22.2882 10.1222 22.2612 10.1622L20.7345 12.4294L18.1569 16.2573C18.1256 16.3037 18.0816 16.3402 18.0296 16.3611C17.6463 16.5153 17.2465 16.628 16.8342 16.6949C16.6026 16.7324 16.4487 16.4775 16.5604 16.2711C16.6903 16.0312 16.8088 15.7819 16.915 15.5245C17.0661 15.1585 17.1923 14.7759 17.2911 14.3796C17.4568 13.7157 17.5456 13.0136 17.5456 12.2872V11.7444V11.4543V8.84175C17.5456 8.6832 17.417 8.55467 17.2585 8.55467H16.8435H14.3558H11.1549H9.55164H7.77467C7.54719 8.52322 7.33232 8.46058 7.14437 8.36947C6.83555 8.21977 6.61811 8.00225 6.52829 7.75318L6.52597 7.74666ZM6.94063 7.43472H9.55164H11.1549C12.6786 7.43472 14.0777 6.81185 15.1759 5.77219C15.3126 5.64275 15.4446 5.50685 15.5717 5.36489C15.6697 5.25537 15.7647 5.14224 15.8566 5.02568C16.3348 4.41927 16.7281 3.72013 17.0145 2.95397C17.0825 2.7718 16.9445 2.58242 16.75 2.58242H15.463H14.196H13.6802H13.0714L6.94063 7.43472ZM18.82 5.18525C18.82 5.62566 19.177 5.98269 19.6175 5.98269C20.0579 5.98269 20.4149 5.62566 20.4149 5.18525C20.4149 4.74483 20.0579 4.3878 19.6175 4.3878C19.177 4.3878 18.82 4.74483 18.82 5.18525ZM0.417664 13.7685C-0.00289452 14.1013 -0.126221 14.7467 0.141434 15.2113L0.143718 15.2177C0.233531 15.4668 0.450973 15.6843 0.7598 15.834C0.949701 15.9261 1.1671 15.9891 1.39721 16.0202H3.16704H4.77028H7.9712H10.4589H10.8739C11.0324 16.0202 11.161 16.1487 11.161 16.3073V18.9199V19.21V19.7527C11.161 20.4791 11.0722 21.1813 10.9065 21.8452C10.8077 22.2414 10.6815 22.624 10.5304 22.99C10.4242 23.2474 10.3057 23.4967 10.1758 23.7367C10.0641 23.943 10.218 24.1979 10.4496 24.1604C10.8619 24.0936 11.2617 23.9808 11.645 23.8266C11.697 23.8057 11.741 23.7692 11.7723 23.7228L14.3499 19.895L15.8766 17.6277C15.9036 17.5877 15.9201 17.5415 15.9241 17.4935C15.9439 17.2543 15.954 17.0118 15.954 16.7665V12.4912V9.58851C15.954 9.42997 15.8255 9.30143 15.6669 9.30143H14.191H12.7642H11.0012H10.9596H9.07843H7.81143H7.64569H6.17573C6.08636 9.30143 6.00653 9.34228 5.95387 9.40631C5.90644 9.43101 5.86009 9.46096 5.81545 9.4963L0.417664 13.7685ZM3.16704 14.9002H0.554737L6.68549 10.0479H7.29563H7.81143H9.07843H10.3654C10.5599 10.0479 10.6979 10.2373 10.6299 10.4195C10.3435 11.1857 9.9502 11.8848 9.47205 12.4912C9.38015 12.6078 9.28511 12.7209 9.18709 12.8304C9.06004 12.9724 8.92798 13.1083 8.79125 13.2377C7.69309 14.2774 6.29396 14.9002 4.77028 14.9002H3.16704Z" fill="#E8E5F8"/>
<path d="M39.6413 16.3048C39.6413 16.757 39.5839 17.1653 39.4692 17.5298C39.3545 17.8875 39.2026 18.2047 39.0136 18.4814C38.8247 18.7514 38.6053 18.9842 38.3556 19.18C38.1059 19.3689 37.8426 19.5242 37.5659 19.6457C37.296 19.7672 37.0226 19.8583 36.7459 19.919C36.4692 19.973 36.206 20 35.9562 20H31.2082V17.3678H35.9562C36.3072 17.3678 36.5704 17.2767 36.7459 17.0945C36.9214 16.9122 37.0091 16.649 37.0091 16.3048V12.7615C37.0091 12.397 36.918 12.1271 36.7358 11.9516C36.5603 11.7761 36.3004 11.6884 35.9562 11.6884H31.2284C30.8707 11.6884 30.6007 11.7795 30.4185 11.9617C30.2363 12.1372 30.1452 12.397 30.1452 12.7412V23.4218H27.513V12.7412C27.513 12.289 27.5704 11.8841 27.6851 11.5264C27.7998 11.1687 27.9517 10.8548 28.1407 10.5849C28.3364 10.3081 28.5591 10.0753 28.8088 9.88632C29.0586 9.69059 29.3184 9.53198 29.5884 9.4105C29.8651 9.28901 30.1418 9.20127 30.4185 9.14728C30.702 9.08654 30.9652 9.05617 31.2082 9.05617H35.9562C36.4084 9.05617 36.8134 9.11353 37.1711 9.22827C37.5288 9.34301 37.8426 9.49486 38.1126 9.68384C38.3893 9.87282 38.6222 10.0922 38.8112 10.3419C39.0069 10.5916 39.1655 10.8548 39.287 11.1315C39.4085 11.4015 39.4962 11.6749 39.5502 11.9516C39.6109 12.2283 39.6413 12.4915 39.6413 12.7412V16.3048ZM51.4659 11.6884H45.5435C45.1858 11.6884 44.9158 11.7795 44.7336 11.9617C44.5513 12.1372 44.4602 12.397 44.4602 12.7412V20H41.828V12.7412C41.828 12.289 41.8854 11.8841 42.0002 11.5264C42.1149 11.1687 42.2667 10.8548 42.4557 10.5849C42.6514 10.3081 42.8742 10.0753 43.1239 9.88632C43.3736 9.69059 43.6335 9.53198 43.9034 9.4105C44.1801 9.28901 44.4569 9.20127 44.7336 9.14728C45.017 9.08654 45.2803 9.05617 45.5232 9.05617H51.4659V11.6884ZM55.8799 6.80868H53.2477V4.42959H55.8799V6.80868ZM55.8799 20H53.2477V9.05617H55.8799V20ZM68.1803 20H65.5481V12.7412C65.5481 12.397 65.457 12.1372 65.2748 11.9617C65.0926 11.7795 64.8226 11.6884 64.4649 11.6884H61.043V20H58.4108V10.3621C58.4108 10.1799 58.4446 10.0112 58.5121 9.85595C58.5796 9.69397 58.6741 9.55561 58.7955 9.44087C58.917 9.31938 59.0588 9.2249 59.2207 9.1574C59.3827 9.08991 59.5548 9.05617 59.7371 9.05617H64.4851C64.8496 9.05617 65.241 9.12028 65.6595 9.24852C66.0779 9.37675 66.4761 9.5826 66.8541 9.86607V9.05617H70.4177C70.6674 9.05617 70.9306 9.08654 71.2073 9.14728C71.484 9.20127 71.7574 9.28901 72.0274 9.4105C72.3041 9.53198 72.5673 9.69059 72.817 9.88632C73.0667 10.0753 73.2861 10.3081 73.4751 10.5849C73.664 10.8548 73.8159 11.1687 73.9306 11.5264C74.0454 11.8841 74.1027 12.289 74.1027 12.7412V20H71.4705V12.7412C71.4705 12.397 71.3828 12.1372 71.2073 11.9617C71.0386 11.7795 70.7754 11.6884 70.4177 11.6884H68.0487C68.1364 12.0123 68.1803 12.3633 68.1803 12.7412V20ZM88.3064 12.6805C88.3064 13.0449 88.2423 13.4398 88.1141 13.865C87.9859 14.2834 87.7766 14.6749 87.4864 15.0393C87.2029 15.397 86.8284 15.6974 86.3627 15.9404C85.9037 16.1833 85.3435 16.3048 84.6821 16.3048H79.9341V13.8042H84.6821C85.0398 13.8042 85.3165 13.6962 85.5123 13.4803C85.708 13.2575 85.8059 12.9842 85.8059 12.6602C85.8059 12.316 85.6945 12.0461 85.4718 11.8503C85.2558 11.6546 84.9926 11.5567 84.6821 11.5567H79.9341C79.5763 11.5567 79.2996 11.6681 79.1039 11.8908C78.9082 12.1068 78.8103 12.3768 78.8103 12.7007V16.3757C78.8103 16.7266 78.9183 17 79.1343 17.1957C79.357 17.3914 79.6303 17.4893 79.9543 17.4893H84.6821V20H79.9341C79.5696 20 79.1748 19.9359 78.7496 19.8076C78.3311 19.6794 77.9397 19.4736 77.5752 19.1901C77.2175 18.8999 76.9172 18.5253 76.6742 18.0664C76.4312 17.6007 76.3097 17.0371 76.3097 16.3757V12.6805C76.3097 12.316 76.3738 11.9246 76.5021 11.5061C76.6303 11.0809 76.8362 10.6895 77.1196 10.3318C77.4098 9.96731 77.7844 9.66359 78.2434 9.42062C78.7091 9.17765 79.2726 9.05617 79.9341 9.05617H84.6821C85.0466 9.05617 85.438 9.12028 85.8565 9.24852C86.2817 9.37675 86.6731 9.58598 87.0308 9.87619C87.3953 10.1597 87.699 10.5342 87.942 10.9999C88.185 11.4589 88.3064 12.0191 88.3064 12.6805ZM108.098 9.05617C107.68 9.9943 107.228 10.9189 106.742 11.8301C106.256 12.7345 105.746 13.5916 105.213 14.4015C104.687 15.2114 104.147 15.9606 103.593 16.649C103.04 17.3307 102.49 17.9212 101.943 18.4207C101.403 18.9134 100.873 19.3015 100.354 19.5849C99.8408 19.8616 99.3549 20 98.8959 20C98.707 20 98.5315 19.9663 98.3695 19.8988C98.2075 19.8313 98.0658 19.7402 97.9443 19.6254C97.8228 19.5039 97.7283 19.3622 97.6608 19.2002C97.5933 19.0382 97.5596 18.8628 97.5596 18.6738V13.7637L92.3357 19.6052C92.2007 19.7402 92.0522 19.8414 91.8903 19.9089C91.735 19.9696 91.5731 20 91.4043 20C91.2221 20 91.05 19.9663 90.888 19.8988C90.7328 19.8313 90.5944 19.7402 90.4729 19.6254C90.3514 19.5039 90.2536 19.3622 90.1793 19.2002C90.1119 19.0382 90.0781 18.8628 90.0781 18.6738V9.05617H92.7103V15.2924L97.9544 9.43075C98.1434 9.24177 98.3661 9.12366 98.6226 9.07641C98.8858 9.02242 99.1423 9.04942 99.392 9.1574C99.6417 9.25864 99.8375 9.42062 99.9792 9.64335C100.128 9.85932 100.202 10.0989 100.202 10.3621V16.6186C100.769 16.072 101.282 15.4949 101.741 14.8875C102.2 14.28 102.625 13.6557 103.016 13.0146C103.415 12.3667 103.786 11.712 104.13 11.0506C104.481 10.3824 104.822 9.71759 105.152 9.05617H108.098ZM120.784 12.6805C120.784 13.0449 120.719 13.4398 120.591 13.865C120.463 14.2834 120.254 14.6749 119.964 15.0393C119.68 15.397 119.306 15.6974 118.84 15.9404C118.381 16.1833 117.821 16.3048 117.159 16.3048H112.411V13.8042H117.159C117.517 13.8042 117.794 13.6962 117.989 13.4803C118.185 13.2575 118.283 12.9842 118.283 12.6602C118.283 12.316 118.172 12.0461 117.949 11.8503C117.733 11.6546 117.47 11.5567 117.159 11.5567H112.411C112.054 11.5567 111.777 11.6681 111.581 11.8908C111.385 12.1068 111.287 12.3768 111.287 12.7007V16.3757C111.287 16.7266 111.395 17 111.611 17.1957C111.834 17.3914 112.108 17.4893 112.431 17.4893H117.159V20H112.411C112.047 20 111.652 19.9359 111.227 19.8076C110.808 19.6794 110.417 19.4736 110.052 19.1901C109.695 18.8999 109.394 18.5253 109.151 18.0664C108.908 17.6007 108.787 17.0371 108.787 16.3757V12.6805C108.787 12.316 108.851 11.9246 108.979 11.5061C109.107 11.0809 109.313 10.6895 109.597 10.3318C109.887 9.96731 110.262 9.66359 110.721 9.42062C111.186 9.17765 111.75 9.05617 112.411 9.05617H117.159C117.524 9.05617 117.915 9.12028 118.334 9.24852C118.759 9.37675 119.15 9.58598 119.508 9.87619C119.872 10.1597 120.176 10.5342 120.419 10.9999C120.662 11.4589 120.784 12.0191 120.784 12.6805ZM134.623 16.3048C134.623 16.5545 134.592 16.8178 134.532 17.0945C134.478 17.3712 134.39 17.6479 134.269 17.9246C134.147 18.1946 133.988 18.4544 133.793 18.7042C133.604 18.9539 133.371 19.1766 133.094 19.3723C132.824 19.5613 132.51 19.7132 132.153 19.8279C131.795 19.9426 131.39 20 130.938 20H126.19C125.94 20 125.677 19.973 125.4 19.919C125.123 19.8583 124.847 19.7672 124.57 19.6457C124.3 19.5242 124.04 19.3689 123.79 19.18C123.541 18.9842 123.318 18.7514 123.122 18.4814C122.933 18.2047 122.781 17.8875 122.667 17.5298C122.552 17.1653 122.495 16.757 122.495 16.3048V4.42959H125.127V16.3048C125.127 16.6288 125.228 16.8886 125.43 17.0843C125.633 17.2733 125.886 17.3678 126.19 17.3678H130.938C131.268 17.3678 131.525 17.2699 131.707 17.0742C131.896 16.8785 131.991 16.622 131.991 16.3048V12.7412C131.991 12.4105 131.893 12.1541 131.697 11.9718C131.501 11.7828 131.248 11.6884 130.938 11.6884H126.19V9.05617H130.938C131.188 9.05617 131.451 9.08654 131.727 9.14728C132.004 9.20127 132.278 9.28901 132.547 9.4105C132.824 9.53198 133.087 9.69059 133.337 9.88632C133.587 10.0753 133.806 10.3081 133.995 10.5849C134.184 10.8548 134.336 11.1687 134.451 11.5264C134.565 11.8841 134.623 12.289 134.623 12.7412V16.3048ZM147.45 16.3048C147.45 16.757 147.392 17.1653 147.278 17.5298C147.163 17.8875 147.011 18.2047 146.822 18.4814C146.633 18.7514 146.414 18.9842 146.164 19.18C145.914 19.3689 145.651 19.5242 145.374 19.6457C145.104 19.7672 144.828 19.8583 144.544 19.919C144.267 19.973 144.004 20 143.755 20H136.627V17.3678H143.734C144.092 17.3678 144.362 17.2767 144.544 17.0945C144.726 16.9122 144.818 16.649 144.818 16.3048C144.784 15.6029 144.429 15.2519 143.755 15.2519H139.675C139.094 15.2519 138.602 15.1507 138.197 14.9482C137.792 14.7457 137.461 14.4926 137.204 14.1889C136.955 13.8852 136.772 13.5579 136.658 13.2069C136.55 12.856 136.496 12.5286 136.496 12.2249C136.496 11.6377 136.6 11.145 136.81 10.7468C137.019 10.3419 137.282 10.0146 137.599 9.76483C137.916 9.51511 138.261 9.33626 138.632 9.22827C139.003 9.11353 139.351 9.05617 139.675 9.05617H146.144V11.6884H139.695C139.56 11.6884 139.452 11.7052 139.371 11.739C139.297 11.766 139.239 11.8065 139.199 11.8605C139.165 11.9077 139.145 11.9617 139.138 12.0224C139.131 12.0764 139.128 12.1304 139.128 12.1844C139.135 12.2924 139.155 12.3768 139.189 12.4375C139.222 12.4983 139.263 12.5421 139.31 12.5691C139.364 12.5961 139.422 12.613 139.482 12.6197C139.55 12.6197 139.614 12.6197 139.675 12.6197H143.755C144.429 12.6197 145.003 12.7412 145.476 12.9842C145.948 13.2272 146.329 13.5343 146.62 13.9055C146.91 14.2699 147.119 14.6681 147.247 15.1001C147.382 15.532 147.45 15.9336 147.45 16.3048ZM161.208 16.3048C161.208 16.757 161.151 17.1653 161.036 17.5298C160.921 17.8875 160.769 18.2047 160.58 18.4814C160.391 18.7514 160.172 18.9842 159.922 19.18C159.673 19.3689 159.409 19.5242 159.133 19.6457C158.863 19.7672 158.586 19.8583 158.302 19.919C158.026 19.973 157.762 20 157.513 20H152.765C152.4 20 152.002 19.9359 151.57 19.8076C151.138 19.6794 150.737 19.4702 150.365 19.18C150.001 18.883 149.694 18.5017 149.444 18.036C149.201 17.5635 149.08 16.9865 149.08 16.3048V12.7412C149.08 12.0663 149.201 11.496 149.444 11.0303C149.694 10.5579 150.001 10.1765 150.365 9.88632C150.737 9.58935 151.138 9.37675 151.57 9.24852C152.002 9.12028 152.4 9.05617 152.765 9.05617H157.513C158.188 9.05617 158.761 9.17765 159.234 9.42062C159.706 9.66359 160.088 9.97068 160.378 10.3419C160.668 10.7063 160.877 11.1045 161.005 11.5365C161.14 11.9684 161.208 12.37 161.208 12.7412V16.3048ZM158.576 12.7615C158.576 12.397 158.485 12.1271 158.302 11.9516C158.12 11.7761 157.857 11.6884 157.513 11.6884H152.785C152.434 11.6884 152.167 11.7795 151.985 11.9617C151.803 12.1372 151.712 12.397 151.712 12.7412V16.3048C151.712 16.649 151.803 16.9122 151.985 17.0945C152.167 17.2767 152.434 17.3678 152.785 17.3678H157.513C157.87 17.3678 158.137 17.2767 158.313 17.0945C158.488 16.9122 158.576 16.649 158.576 16.3048V12.7615ZM168.264 20H167.09C166.712 20 166.307 19.9359 165.875 19.8076C165.45 19.6794 165.052 19.4702 164.68 19.18C164.309 18.883 164.002 18.5017 163.759 18.036C163.516 17.5635 163.395 16.9865 163.395 16.3048V4.42959H166.027V16.3048C166.027 16.6288 166.128 16.8886 166.331 17.0843C166.533 17.2733 166.786 17.3678 167.09 17.3678H168.264V20ZM181.759 18.6738C181.759 18.8628 181.726 19.0382 181.658 19.2002C181.591 19.3622 181.496 19.5039 181.375 19.6254C181.26 19.7402 181.121 19.8313 180.96 19.8988C180.804 19.9663 180.636 20 180.453 20H174.501C174.177 20 173.829 19.9629 173.458 19.8886C173.093 19.8144 172.732 19.6963 172.375 19.5343C172.017 19.3656 171.669 19.1563 171.332 18.9066C171.001 18.6502 170.711 18.3431 170.461 17.9854C170.211 17.6209 170.009 17.2025 169.854 16.73C169.705 16.2576 169.631 15.7244 169.631 15.1304V9.05617H172.263V15.1304C172.263 15.4747 172.321 15.7851 172.435 16.0618C172.557 16.3318 172.719 16.5647 172.921 16.7604C173.124 16.9561 173.36 17.108 173.63 17.216C173.907 17.3172 174.204 17.3678 174.521 17.3678H179.127V9.05617H181.759V18.6738ZM194.181 11.6884H189.585V20H186.922V11.6884H183.501V9.05617H186.922V5.48246H189.585V9.05617H194.181V11.6884ZM198.585 6.80868H195.953V4.42959H198.585V6.80868ZM198.585 20H195.953V9.05617H198.585V20ZM213.022 16.3048C213.022 16.757 212.964 17.1653 212.85 17.5298C212.735 17.8875 212.583 18.2047 212.394 18.4814C212.205 18.7514 211.986 18.9842 211.736 19.18C211.486 19.3689 211.223 19.5242 210.946 19.6457C210.676 19.7672 210.4 19.8583 210.116 19.919C209.839 19.973 209.576 20 209.326 20H204.578C204.214 20 203.816 19.9359 203.384 19.8076C202.952 19.6794 202.55 19.4702 202.179 19.18C201.815 18.883 201.507 18.5017 201.258 18.036C201.015 17.5635 200.893 16.9865 200.893 16.3048V12.7412C200.893 12.0663 201.015 11.496 201.258 11.0303C201.507 10.5579 201.815 10.1765 202.179 9.88632C202.55 9.58935 202.952 9.37675 203.384 9.24852C203.816 9.12028 204.214 9.05617 204.578 9.05617H209.326C210.001 9.05617 210.575 9.17765 211.047 9.42062C211.52 9.66359 211.901 9.97068 212.191 10.3419C212.482 10.7063 212.691 11.1045 212.819 11.5365C212.954 11.9684 213.022 12.37 213.022 12.7412V16.3048ZM210.389 12.7615C210.389 12.397 210.298 12.1271 210.116 11.9516C209.934 11.7761 209.671 11.6884 209.326 11.6884H204.599C204.248 11.6884 203.981 11.7795 203.799 11.9617C203.617 12.1372 203.525 12.397 203.525 12.7412V16.3048C203.525 16.649 203.617 16.9122 203.799 17.0945C203.981 17.2767 204.248 17.3678 204.599 17.3678H209.326C209.684 17.3678 209.951 17.2767 210.126 17.0945C210.302 16.9122 210.389 16.649 210.389 16.3048V12.7615ZM227.397 20H224.765V13.9257C224.765 13.5815 224.704 13.2744 224.583 13.0045C224.468 12.7277 224.31 12.4915 224.107 12.2958C223.905 12.1001 223.665 11.9516 223.388 11.8503C223.118 11.7423 222.825 11.6884 222.508 11.6884H217.901V20H215.269V10.3621C215.269 10.1799 215.303 10.0112 215.37 9.85595C215.438 9.69397 215.532 9.55561 215.654 9.44087C215.775 9.31938 215.917 9.2249 216.079 9.1574C216.241 9.08991 216.413 9.05617 216.595 9.05617H222.528C222.859 9.05617 223.206 9.09329 223.571 9.16753C223.942 9.24177 224.306 9.36325 224.664 9.53198C225.028 9.69397 225.373 9.90319 225.697 10.1597C226.027 10.4094 226.318 10.7165 226.567 11.0809C226.824 11.4386 227.026 11.8537 227.175 12.3262C227.323 12.7986 227.397 13.3318 227.397 13.9257V20Z" fill="#F8F7FF"/>
</svg>
